<svg xmlns="http://www.w3.org/2000/svg" viewBox="0 0 512 512">
  <defs>
    <linearGradient id="grad1" x1="0%" y1="0%" x2="100%" y2="100%">
      <stop offset="0%" style="stop-color:#10b981;stop-opacity:1" />
      <stop offset="100%" style="stop-color:#059669;stop-opacity:1" />
    </linearGradient>
  </defs>
  <rect width="512" height="512" rx="100" fill="#1e1e1e"/>
  <path d="M256 64C150 64 64 150 64 256s86 192 192 192 192-86 192-192S362 64 256 64zm0 340c-80 0-148-68-148-148s68-148 148-148 148 68 148 148-68 148-148 148z" fill="#333"/>
  <path d="M256 96c-88.2 0-160 71.8-160 160 0 88.2 71.8 160 160 160V96z" fill="url(#grad1)" opacity="0.2"/>
  
  <path d="M120 320 L190 250 L260 290 L390 160" fill="none" stroke="#10b981" stroke-width="24" stroke-linecap="round" stroke-linejoin="round"/>
  <circle cx="120" cy="320" r="12" fill="#fff"/>
  <circle cx="190" cy="250" r="12" fill="#fff"/>
  <circle cx="260" cy="290" r="12" fill="#fff"/>
  <circle cx="390" cy="160" r="12" fill="#fff"/>
</svg>